<svg width="148" height="34" viewBox="0 0 148 34" fill="none" xmlns="http://www.w3.org/2000/svg">
<g clip-path="url(#clip0_11962_10829)">
<path d="M17.5769 32.9943C8.15946 32.9943 0.5 25.8274 0.5 17.021C0.5 12.9148 2.16724 9.01245 5.19318 6.0317L5.24763 5.97835L13.4749 19.2498C14.3202 20.6129 15.8941 21.4617 17.5821 21.4617C18.4118 21.4617 19.2338 21.2556 19.9572 20.8627C22.2182 19.6355 22.9909 16.9142 21.6815 14.7969C20.8362 13.4339 19.2623 12.585 17.5743 12.585C16.7446 12.585 15.9227 12.7911 15.1992 13.184C14.7195 13.446 14.2891 13.7855 13.9261 14.1978L13.8716 14.2585L7.56567 4.08657L7.60977 4.05748C10.5268 2.09052 13.9754 1.05005 17.5769 1.05005C26.9918 1.05005 34.6513 8.21452 34.6513 17.021C34.6513 25.8274 26.9918 32.9943 17.5769 32.9943ZM5.06353 12.5171C4.46715 13.9577 4.16639 15.4711 4.16639 17.021C4.16639 23.938 10.1819 29.5648 17.5769 29.5648C24.9719 29.5648 30.9849 23.938 30.9849 17.021C30.9849 10.1038 24.9693 4.47949 17.5769 4.47949C15.863 4.47949 14.1906 4.78265 12.6011 5.37687L15.1525 9.49024C15.9356 9.26955 16.7498 9.15554 17.5717 9.15554C20.5614 9.15554 23.3513 10.6568 24.85 13.0725C27.1759 16.8221 25.8068 21.6461 21.793 23.824C20.5121 24.5177 19.0549 24.8863 17.5821 24.8863C14.5899 24.8863 11.7999 23.385 10.3012 20.967L5.06353 12.5171Z" fill="#E43038"/>
<path d="M139.395 26.6035C134.924 26.6035 131.289 23.2953 131.289 19.228C131.289 15.1607 134.927 11.8525 139.395 11.8525C143.862 11.8525 147.5 15.1607 147.5 19.228C147.5 23.2953 143.862 26.6035 139.395 26.6035ZM139.395 15.2068C137.051 15.2068 135.145 17.0113 135.145 19.228C135.145 21.4448 137.051 23.2492 139.395 23.2492C141.738 23.2492 143.644 21.4448 143.644 19.228C143.644 17.0113 141.738 15.2068 139.395 15.2068Z" fill="#E43038"/>
<path d="M77.7342 26.6035C72.9426 26.6035 69.3281 23.4336 69.3281 19.228C69.3281 15.0225 72.9658 11.8501 77.4361 11.8501C81.9063 11.8501 85.5416 15.1607 85.5416 19.228C85.5416 19.6379 85.5052 20.0381 85.4379 20.4213L85.4299 20.4674H73.3938C73.9824 22.2112 75.6003 23.2492 77.7368 23.2492C78.9505 23.2492 80.1068 22.7569 80.9132 21.8959L80.9391 21.8692L84.6444 23.0892L84.6055 23.1474C83.112 25.3108 80.5451 26.6035 77.7395 26.6035H77.7342ZM81.4524 17.9159C80.8638 16.2933 79.2589 15.2068 77.4334 15.2068C75.608 15.2068 74.003 16.2933 73.4144 17.9159H81.45H81.4524Z" fill="#E43038"/>
<path d="M49.7715 26.6035C45.1974 26.6035 41.4766 23.2929 41.4766 19.2256V7.43848H45.2883V13.497C46.5848 12.4201 48.1948 11.8526 49.9476 11.8526C54.1924 11.8526 57.6433 15.1608 57.6433 19.2305C57.6433 23.3002 54.1118 26.6059 49.7715 26.6059V26.6035ZM49.538 15.2068C47.1993 15.2068 45.2909 17.0089 45.2883 19.2256C45.2883 21.4473 47.194 23.2493 49.538 23.2493C51.8821 23.2493 53.7878 21.4448 53.7878 19.2281C53.7878 17.0113 51.8821 15.2068 49.538 15.2068Z" fill="#E43038"/>
<path d="M121.701 26.6035C117.127 26.6035 113.406 23.2929 113.406 19.2256V7.43848H117.218V13.497C118.517 12.4201 120.125 11.8526 121.878 11.8526C126.122 11.8526 129.573 15.1608 129.573 19.2305C129.573 23.3002 126.042 26.6059 121.701 26.6059V26.6035ZM121.468 15.2068C119.129 15.2068 117.221 17.0089 117.218 19.2256C117.218 21.4473 119.124 23.2493 121.468 23.2493C123.812 23.2493 125.718 21.4448 125.718 19.2281C125.718 17.0113 123.812 15.2068 121.468 15.2068Z" fill="#E43038"/>
<path d="M59.7761 26.3293V16.868C59.7761 13.9455 61.7388 12.1289 64.8946 12.1289H68.579V15.5535H65.9369C64.7182 15.5535 63.5928 15.7936 63.5928 17.5326V26.3293H59.7734H59.7761Z" fill="#E43038"/>
<path d="M107.421 26.3294V18.903C107.421 16.3806 105.759 15.4856 104.339 15.4856C103.817 15.4856 101.214 15.6457 101.214 18.7962V26.3294H97.4181V18.7962C97.4181 15.6457 94.8147 15.4856 94.2935 15.4856C92.8702 15.4856 91.2106 16.3806 91.2106 18.903V26.3294H87.5V17.9183C87.5 14.1371 90.8554 11.8792 94.0991 11.8792C96.1424 11.8792 98.0869 12.728 99.3185 14.1541C100.548 12.728 102.495 11.8792 104.538 11.8792C107.782 11.8792 111.14 14.1396 111.14 17.9183V26.3294H107.427H107.421Z" fill="#E43038"/>
</g>
<defs>
<clipPath id="clip0_11962_10829">
<rect width="147" height="33" fill="white" transform="translate(0.5 0.5)"/>
</clipPath>
</defs>
</svg>
